<?xml version="1.0" encoding="utf-8"?>
<!-- Generator: Adobe Illustrator 19.0.0, SVG Export Plug-In . SVG Version: 6.00 Build 0)  -->
<svg version="1.1" id="Layer_1" xmlns="http://www.w3.org/2000/svg" xmlns:xlink="http://www.w3.org/1999/xlink" x="0px" y="0px"
	 viewBox="-296 388.8 17.2 17.2" style="enable-background:new -296 388.8 17.2 17.2;" xml:space="preserve">
<style type="text/css">
	.st0{fill:#6CB144;}
</style>
<path id="Icon_awesome-linkedin" class="st0" d="M-280,388.8h-14.7c-0.7,0-1.2,0.6-1.2,1.2v14.7c0,0.7,0.5,1.2,1.2,1.2c0,0,0,0,0,0
	h14.7c0.7,0,1.2-0.6,1.2-1.2v-14.7C-278.8,389.4-279.4,388.8-280,388.8z M-290.8,403.5h-2.5v-8.2h2.6L-290.8,403.5L-290.8,403.5z
	 M-292.1,394.2c-0.8,0-1.5-0.7-1.5-1.5c0-0.8,0.7-1.5,1.5-1.5c0.8,0,1.5,0.7,1.5,1.5C-290.6,393.6-291.3,394.2-292.1,394.2
	C-292.1,394.2-292.1,394.2-292.1,394.2z M-281.3,403.5h-2.5v-4c0-1,0-2.2-1.3-2.2c-1.3,0-1.5,1-1.5,2.1v4.1h-2.5v-8.2h2.4v1.1h0
	c0.5-0.9,1.4-1.4,2.4-1.3c2.6,0,3.1,1.7,3.1,3.9V403.5z"/>
</svg>
