<?xml version="1.0" encoding="utf-8"?>
<!-- Generator: Adobe Illustrator 19.0.0, SVG Export Plug-In . SVG Version: 6.00 Build 0)  -->
<svg version="1.1" id="Layer_1" xmlns="http://www.w3.org/2000/svg" xmlns:xlink="http://www.w3.org/1999/xlink" x="0px" y="0px"
	 viewBox="-91.3 260.4 332.5 267.5" style="enable-background:new -91.3 260.4 332.5 267.5;" xml:space="preserve">
<style type="text/css">
	.st0{opacity:0.365;}
	.st1{fill:none;}
	.st2{fill:#6CB144;}
	.st3{fill:#0882B7;}
</style>
<g id="Group_2385" transform="matrix(0.914, 0.407, -0.407, 0.914, 251.591, -566.628)" class="st0">
	<g id="Path_4486" transform="matrix(-0.777, 0.629, -0.629, -0.777, 444.398, 683.473)">
		<path class="st1" d="M300.5-198.1c90.2,0,198.3,50,198.3,140.2c0,90.2-94.8,106.7-185.1,106.7S172.1,32.4,172.1-57.9
			S210.3-198.1,300.5-198.1z"/>
		<path class="st2" d="M300.5-198.1v2c-11.1,0-21.5,0.8-31.1,2.3c-9.5,1.5-18.3,3.8-26.3,6.8c-7.9,3-15.2,6.7-21.7,11.1
			c-6.4,4.4-12.3,9.5-17.4,15.4c-5.1,5.8-9.5,12.3-13.3,19.5c-3.7,7.1-6.9,15.1-9.3,23.7c-2.4,8.5-4.3,17.8-5.5,27.7
			c-1.2,9.8-1.8,20.5-1.8,31.7c0,11,0.8,21.2,2.4,30.2c1.5,8.8,3.9,16.8,6.9,23.8c1.5,3.4,3.2,6.7,5.1,9.7c1.9,3,3.9,5.8,6.2,8.4
			c2.2,2.6,4.6,5,7.2,7.2c2.6,2.2,5.3,4.3,8.3,6.1c11.3,7.2,25.6,12.2,43.8,15.2c16,2.7,35,4,59.9,4c25.4,0,47.2-1.3,66.7-4
			c11.1-1.5,21.5-3.5,31-5.9c10.2-2.6,19.5-5.8,27.8-9.4c8.8-3.9,16.8-8.4,23.5-13.5c7.1-5.4,13.2-11.5,18.1-18.2
			c2.5-3.5,4.8-7.2,6.7-11.1c2-4,3.6-8.2,5-12.6c1.4-4.5,2.4-9.2,3.1-14.1c0.7-5,1.1-10.3,1.1-15.8c0-21.1-6-40.9-18-58.9
			c-5.5-8.3-12.4-16.3-20.4-23.7c-7.6-7.1-16.4-13.7-26.1-19.7c-9.3-5.8-19.5-11-30.3-15.6c-10.5-4.4-21.6-8.2-33.1-11.3
			c-11.2-3-22.8-5.3-34.4-6.8c-11.5-1.5-23-2.3-34.2-2.3V-198.1 M300.5-198.1c90.2,0,198.3,50,198.3,140.2S404,48.8,313.8,48.8
			c-90.2,0-141.7-16.4-141.7-106.7C172.1-148.1,210.3-198.1,300.5-198.1z"/>
	</g>
	<g id="Path_4506" transform="matrix(-0.966, 0.259, -0.259, -0.966, 429.502, 767.321)">
		<path class="st1" d="M205.1-250.8c90.2,0,198.3,50,198.3,140.2S308.6-3.9,218.4-3.9c-90.2,0-141.7-16.4-141.7-106.7
			S114.9-250.8,205.1-250.8z"/>
		<path class="st3" d="M205.1-248.8c-11.1,0-21.5,0.8-31.1,2.3c-9.5,1.5-18.3,3.8-26.3,6.8c-7.9,3-15.2,6.7-21.7,11.1
			c-6.4,4.4-12.3,9.5-17.4,15.4c-5.1,5.8-9.5,12.3-13.3,19.5c-3.7,7.1-6.9,15.1-9.3,23.7c-2.4,8.5-4.3,17.8-5.5,27.7
			c-1.2,9.8-1.8,20.5-1.8,31.7c0,11,0.8,21.2,2.4,30.2c1.5,8.8,3.9,16.8,6.9,23.8c1.5,3.4,3.2,6.7,5.1,9.7c1.9,3,3.9,5.8,6.2,8.4
			c2.2,2.6,4.6,5,7.2,7.2c2.6,2.2,5.3,4.3,8.3,6.1c11.3,7.2,25.6,12.2,43.8,15.2c16,2.7,35,4,59.9,4c25.4,0,47.2-1.3,66.7-4
			c11.1-1.5,21.5-3.5,31-5.9c10.2-2.6,19.5-5.8,27.8-9.4c8.8-3.9,16.8-8.4,23.5-13.5c7.1-5.4,13.2-11.5,18.1-18.2
			c2.5-3.5,4.8-7.2,6.7-11.1c2-4,3.6-8.2,5-12.6c1.4-4.5,2.4-9.2,3.1-14.1c0.7-5,1.1-10.3,1.1-15.8c0-21.1-6-40.9-18-58.9
			c-5.5-8.3-12.4-16.3-20.4-23.7c-7.6-7.1-16.4-13.7-26.1-19.7c-9.3-5.8-19.5-11-30.3-15.6c-10.5-4.4-21.6-8.2-33.1-11.3
			c-11.2-3-22.8-5.3-34.4-6.8C227.8-248,216.3-248.8,205.1-248.8 M205.1-250.8c90.2,0,198.3,50,198.3,140.2
			c0,90.2-94.8,106.7-185.1,106.7c-90.2,0-141.7-16.4-141.7-106.7C76.7-200.8,114.9-250.8,205.1-250.8z"/>
	</g>
</g>
</svg>
