<svg xmlns="http://www.w3.org/2000/svg" width="379.575" height="323.092" viewBox="0 0 379.575 323.092">
  <g id="Group_2385" data-name="Group 2385" transform="matrix(0.914, 0.407, -0.407, 0.914, 251.591, -566.628)" opacity="0.365">
    <g id="Path_4486" data-name="Path 4486" transform="matrix(-0.777, 0.629, -0.629, -0.777, 444.398, 683.473)" fill="none">
      <path d="M128.486,0C218.73,0,326.8,50,326.8,140.244S231.987,246.923,141.743,246.923,0,230.488,0,140.244,38.242,0,128.486,0Z" stroke="none"/>
      <path d="M 128.4861907958984 -6.103515625e-05 L 128.4861907958984 1.99993896484375 C 117.412109375 1.99993896484375 106.9431915283203 2.773727416992188 97.37026977539062 4.299728393554688 C 87.90986633300781 5.80780029296875 79.0511474609375 8.094223022460938 71.04023742675781 11.09542846679688 C 63.12979125976562 14.05902099609375 55.81472778320312 17.80647277832031 49.29830932617188 22.233642578125 C 42.85830688476562 26.60888671875 37.00662231445312 31.77847290039062 31.90573120117188 37.59877014160156 C 26.85488891601562 43.3619384765625 22.38906860351562 49.93556213378906 18.63223266601562 57.13705444335938 C 14.9088134765625 64.27447509765625 11.77157592773438 72.23980712890625 9.30755615234375 80.81181335449219 C 6.867523193359375 89.30043029785156 5.016082763671875 98.63310241699219 3.8046875 108.5505981445312 C 2.607147216796875 118.3545227050781 1.99993896484375 129.0177612304688 1.99993896484375 140.2441101074219 C 1.99993896484375 151.2724761962891 2.793731689453125 161.4164428710938 4.35931396484375 170.3942260742188 C 5.892578125 179.1867980957031 8.223907470703125 187.18994140625 11.28848266601562 194.1813507080078 C 12.79306030273438 197.6138000488281 14.5115966796875 200.8897705078125 16.3963623046875 203.9181365966797 C 18.25445556640625 206.9036865234375 20.33218383789062 209.7419281005859 22.57186889648438 212.3540649414062 C 24.77923583984375 214.928466796875 27.21365356445312 217.3645629882812 29.80752563476562 219.5946044921875 C 32.363037109375 221.7916870117188 35.15457153320312 223.858642578125 38.10464477539062 225.7381439208984 C 49.39718627929688 232.9325103759766 63.70843505859375 237.915771484375 81.85623168945312 240.9725646972656 C 97.85610961914062 243.6675567626953 116.8855743408203 244.9227294921875 141.7430725097656 244.9227294921875 C 167.1515197753906 244.9227294921875 188.9745330810547 243.6275177001953 208.4591979980469 240.963134765625 C 219.5733642578125 239.4433441162109 230.0032348632812 237.4458465576172 239.458984375 235.0260925292969 C 249.6249084472656 232.4246063232422 258.9949035644531 229.251220703125 267.3086853027344 225.5940551757812 C 276.1478271484375 221.7058410644531 284.0652770996094 217.1513519287109 290.8411254882812 212.0570983886719 C 297.98974609375 206.6826019287109 304.0847778320312 200.5439300537109 308.9568481445312 193.8115997314453 C 311.4879760742188 190.3140563964844 313.7451477050781 186.5791015625 315.6657409667969 182.7104339599609 C 317.6359558105469 178.7418060302734 319.3090209960938 174.5173950195312 320.6385192871094 170.1546325683594 C 322.0025329589844 165.6785888671875 323.0442810058594 160.9278564453125 323.7347717285156 156.0342712402344 C 324.4429321289062 151.0155639648438 324.8020324707031 145.7029418945312 324.8020324707031 140.243896484375 C 324.8020324707031 119.1210174560547 318.7586669921875 99.3115234375 306.8397216796875 81.36564636230469 C 301.3028564453125 73.02902221679688 294.4559936523438 65.05967712402344 286.4892272949219 57.67897033691406 C 278.8462524414062 50.59822082519531 270.0788269042969 43.97039794921875 260.4305725097656 37.97952270507812 C 251.1293640136719 32.20417785644531 240.9304809570312 26.97013854980469 230.1172332763672 22.42280578613281 C 219.6134948730469 18.00564575195312 208.4807739257812 14.21452331542969 197.0284423828125 11.15472412109375 C 185.787109375 8.15130615234375 174.2216949462891 5.847427368164062 162.6534881591797 4.307144165039062 C 151.1556549072266 2.77618408203125 139.6601104736328 1.99993896484375 128.4861907958984 1.99993896484375 L 128.4861907958984 -6.103515625e-05 M 128.4861907958984 -6.103515625e-05 C 218.7300720214844 -0.0001068115234375 326.8020629882812 49.99996948242188 326.8020324707031 140.243896484375 C 326.8019714355469 230.4878540039062 231.9869384765625 246.9226837158203 141.7430725097656 246.9227294921875 C 51.4991455078125 246.9227600097656 -9.1552734375e-05 230.4880218505859 -6.103515625e-05 140.2441101074219 C 0 50.00013732910156 38.24227905273438 1.52587890625e-05 128.4861907958984 -6.103515625e-05 Z" stroke="none" fill="#6cb144"/>
    </g>
    <g id="Path_4506" data-name="Path 4506" transform="matrix(-0.966, 0.259, -0.259, -0.966, 429.502, 767.321)" fill="none">
      <path d="M128.486,0C218.73,0,326.8,50,326.8,140.244S231.987,246.923,141.743,246.923,0,230.488,0,140.244,38.242,0,128.486,0Z" stroke="none"/>
      <path d="M 128.4861450195312 1.999984741210938 C 117.4120635986328 1.999984741210938 106.9431457519531 2.773727416992188 97.3702392578125 4.299774169921875 C 87.90982055664062 5.807846069335938 79.05111694335938 8.094223022460938 71.04023742675781 11.09547424316406 C 63.12979125976562 14.05906677246094 55.81472778320312 17.80647277832031 49.29830932617188 22.233642578125 C 42.85830688476562 26.60890197753906 37.00662231445312 31.77847290039062 31.90573120117188 37.59877014160156 C 26.85494995117188 43.3619384765625 22.38906860351562 49.93560791015625 18.63226318359375 57.13705444335938 C 14.90887451171875 64.27447509765625 11.77157592773438 72.23980712890625 9.30755615234375 80.81181335449219 C 6.867523193359375 89.30043029785156 5.01611328125 98.63310241699219 3.8046875 108.5505981445312 C 2.607147216796875 118.3545227050781 1.99993896484375 129.0177612304688 1.99993896484375 140.2441101074219 C 1.99993896484375 151.2724761962891 2.793731689453125 161.4164428710938 4.35931396484375 170.3942718505859 C 5.892608642578125 179.1868133544922 8.223907470703125 187.1899719238281 11.28851318359375 194.181396484375 C 12.79306030273438 197.6138610839844 14.5115966796875 200.8897705078125 16.3963623046875 203.9181823730469 C 18.25448608398438 206.9037322998047 20.33218383789062 209.7419738769531 22.57186889648438 212.3540954589844 C 24.77926635742188 214.9285278320312 27.21368408203125 217.3646087646484 29.80752563476562 219.5946807861328 C 32.363037109375 221.7917327880859 35.15460205078125 223.8587341308594 38.10464477539062 225.7381896972656 C 49.39718627929688 232.9326019287109 63.70849609375 237.9158172607422 81.85623168945312 240.9726104736328 C 97.85610961914062 243.6676025390625 116.8855743408203 244.9228057861328 141.7430725097656 244.9228057861328 C 167.1515197753906 244.9228057861328 188.9745330810547 243.6276092529297 208.4591979980469 240.9632263183594 C 219.5733642578125 239.4434356689453 230.0032043457031 237.4459381103516 239.458984375 235.0261840820312 C 249.6248626708984 232.4246826171875 258.994873046875 229.2513122558594 267.3086547851562 225.5941467285156 C 276.1477661132812 221.7059326171875 284.065185546875 217.1514434814453 290.841064453125 212.0571899414062 C 297.9896850585938 206.6826782226562 304.0846862792969 200.5440216064453 308.956787109375 193.8116912841797 C 311.4879150390625 190.3141479492188 313.7450561523438 186.5791931152344 315.6656494140625 182.7105102539062 C 317.6358642578125 178.7418975830078 319.3089294433594 174.5174865722656 320.6384582519531 170.1547241210938 C 322.00244140625 165.6786804199219 323.044189453125 160.9279479980469 323.7346801757812 156.0343627929688 C 324.44287109375 151.0156555175781 324.8019409179688 145.7030181884766 324.8019409179688 140.2439880371094 C 324.8019409179688 119.1211013793945 318.7585754394531 99.31156921386719 306.8396606445312 81.36569213867188 C 301.3028259277344 73.02906799316406 294.4559326171875 65.05972290039062 286.4891967773438 57.67906188964844 C 278.84619140625 50.5982666015625 270.0787658691406 43.97044372558594 260.4305419921875 37.97956848144531 C 251.1293182373047 32.2042236328125 240.9304504394531 26.97018432617188 230.1171875 22.4228515625 C 219.6134033203125 18.00569152832031 208.4807434082031 14.21456909179688 197.0283966064453 11.15476989746094 C 185.7870635986328 8.151351928710938 174.2216491699219 5.84747314453125 162.6534423828125 4.30718994140625 C 151.1556091308594 2.776229858398438 139.6600646972656 1.999984741210938 128.4861450195312 1.999984741210938 M 128.4861450195312 -1.52587890625e-05 C 218.7300262451172 -6.103515625e-05 326.8020324707031 50.00001525878906 326.8019409179688 140.2439880371094 C 326.8019104003906 230.4879302978516 231.9869384765625 246.9227752685547 141.7430725097656 246.9228057861328 C 51.4991455078125 246.9228515625 -6.103515625e-05 230.4880676269531 -6.103515625e-05 140.2441101074219 C 3.0517578125e-05 50.00015258789062 38.24227905273438 1.52587890625e-05 128.4861450195312 -1.52587890625e-05 Z" stroke="none" fill="#0882b7"/>
    </g>
  </g>
</svg>
