<?xml version="1.0" encoding="utf-8"?>
<!-- Generator: Adobe Illustrator 19.0.0, SVG Export Plug-In . SVG Version: 6.00 Build 0)  -->
<svg version="1.1" id="Layer_1" xmlns="http://www.w3.org/2000/svg" xmlns:xlink="http://www.w3.org/1999/xlink" x="0px" y="0px"
	 viewBox="-71.1 269.9 307.8 276.6" style="enable-background:new -71.1 269.9 307.8 276.6;" xml:space="preserve">
<style type="text/css">
	.st0{opacity:0.365;}
	.st1{fill:none;}
	.st2{fill:#6CB144;}
	.st3{fill:#0882B7;}
</style>
<g id="Group_2388" transform="matrix(-0.978, -0.208, 0.208, -0.978, 270.874, 898.902)" class="st0">
	<g id="Path_4486" transform="matrix(-0.777, 0.629, -0.629, -0.777, 415.545, 683.473)">
		<path class="st1" d="M-75.3,140.4c86.4-3.1,188.1,41.8,185,129.5s-94.5,107-180.9,110.1s-135.1-11.1-132-98.8
			C-200.1,193.4-161.7,143.5-75.3,140.4z"/>
		<path class="st2" d="M-66.9,142.2c-2.8,0-5.6,0.1-8.4,0.2c-10.6,0.4-20.6,1.5-29.9,3.3c-9.1,1.8-17.7,4.3-25.4,7.5
			c-7.7,3.2-14.8,7.1-21.2,11.6c-6.3,4.5-12.1,9.7-17.2,15.6c-5,5.8-9.6,12.3-13.4,19.5c-3.8,7.1-7.1,14.9-9.8,23.4
			c-2.6,8.3-4.7,17.5-6.2,27.2c-1.5,9.6-2.4,20-2.8,30.9c-0.3,8.6-0.1,16.7,0.6,24c0.7,7.2,1.9,13.9,3.6,19.8
			c1.7,5.8,3.8,11.2,6.5,16c2.6,4.6,5.7,8.9,9.2,12.5c8.8,9.1,20.7,15.5,36.3,19.4c7.4,1.9,15.5,3.2,24.8,4.1
			c8.7,0.8,18.1,1.2,29,1.2c6.2,0,12.7-0.1,19.8-0.4c24.3-0.9,45.3-2.9,64-6.1c10.7-1.9,20.7-4.2,29.9-6.8c9.8-2.9,18.9-6.3,27-10.1
			c8.6-4.1,16.3-8.8,23-14c7-5.5,13.1-11.7,18-18.4c2.5-3.5,4.8-7.2,6.8-11c2-3.9,3.8-8.1,5.2-12.4c1.5-4.4,2.6-9.1,3.5-13.8
			c0.9-4.9,1.4-10.1,1.6-15.4c0.3-7.3-0.2-14.6-1.5-21.5c-1.2-6.7-3.1-13.3-5.7-19.5c-4.9-12-12.3-23.2-22.1-33.3
			c-8.2-8.5-18.1-16.3-29.4-23.1c-10.8-6.5-22.8-12.1-35.8-16.7c-12.6-4.4-25.9-7.8-39.6-10.1C-39.7,143.3-53.4,142.2-66.9,142.2
			 M-66.9,140.2c84.4,0,179.6,44.8,176.6,129.6c-3.1,87.7-94.5,107-180.9,110.1c-6.9,0.2-13.5,0.4-19.9,0.4
			c-73.9,0-115-18.5-112.1-99.2c3.1-87.7,41.4-137.6,127.9-140.8C-72.5,140.3-69.7,140.2-66.9,140.2z"/>
	</g>
	<g id="Path_4506" transform="translate(390.026 792.985) rotate(173)">
		<path class="st1" d="M28.1,226.7c84-0.8,184.1,48.3,183.4,138.4S122.3,472.5,38.3,473.3c-84,0.8-131.8-15.2-131-105.4
			S-55.9,227.5,28.1,226.7z"/>
		<path class="st3" d="M30,228.7c-0.6,0-1.3,0-1.9,0c-10.3,0.1-20,1-28.9,2.6c-8.8,1.6-17,3.9-24.5,7c-7.4,3-14.2,6.8-20.3,11.3
			c-6,4.4-11.5,9.6-16.3,15.5c-4.8,5.8-9,12.4-12.5,19.6c-3.5,7.2-6.5,15.2-8.9,23.8c-2.3,8.5-4.1,17.9-5.4,27.8
			c-1.2,9.8-1.9,20.5-2,31.7c-0.1,9.3,0.4,17.9,1.3,25.7c0.9,7.7,2.4,14.8,4.4,21.1c1.9,6.2,4.4,11.9,7.3,17
			c2.9,4.9,6.3,9.4,10.1,13.3c9.8,9.9,23.1,16.7,40.6,20.9c15.5,3.7,34.5,5.4,59.8,5.4c1.8,0,3.6,0,5.5,0
			c23.6-0.2,43.9-1.7,62.1-4.5c10.3-1.6,20.1-3.7,28.9-6.2c9.5-2.7,18.2-5.9,26-9.6c8.2-4,15.6-8.6,22-13.7
			c6.7-5.4,12.4-11.6,17-18.4c2.4-3.5,4.5-7.3,6.3-11.2c1.9-4,3.5-8.2,4.7-12.6c2.7-9.1,4-19.2,4.1-30c0.1-8-0.7-16-2.3-23.6
			c-1.5-7.3-3.8-14.6-6.8-21.4c-5.7-13.1-14.2-25.4-25.2-36.4c-8.7-8.7-18.9-16.7-30.4-23.7c-11-6.7-23.1-12.5-36.1-17.2
			c-12.6-4.6-25.7-8.1-39.2-10.5C56.3,229.9,43,228.7,30,228.7 M30,226.7c83.6,0,182.2,49,181.4,138.4
			c-0.8,90.1-89.1,107.4-173.1,108.1c-1.9,0-3.7,0-5.5,0c-80.6,0-126.2-17.2-125.5-105.4c0.8-90.1,36.8-140.4,120.8-141.2
			C28.7,226.7,29.4,226.7,30,226.7z"/>
	</g>
</g>
</svg>
