<svg xmlns="http://www.w3.org/2000/svg" width="387.983" height="356.084" viewBox="0 0 387.983 356.084">
  <g id="Group_2388" data-name="Group 2388" transform="matrix(-0.978, -0.208, 0.208, -0.978, 270.874, 898.902)" opacity="0.365">
    <g id="Path_4486" data-name="Path 4486" transform="matrix(-0.777, 0.629, -0.629, -0.777, 415.545, 683.473)" fill="none">
      <path d="M123.017-4.429c86.4-3.111,188.15,41.768,185.04,129.493S213.6,232.033,127.2,235.144-7.945,224.054-4.834,136.329,36.614-1.318,123.017-4.429Z" stroke="none"/>
      <path d="M 131.4771881103516 -2.5804443359375 C 128.6774749755859 -2.5804443359375 125.855224609375 -2.529937744140625 123.0888061523438 -2.430313110351562 C 112.4906463623047 -2.048736572265625 102.4446868896484 -0.9361114501953125 93.22993469238281 0.8766326904296875 C 84.12109375 2.668548583984375 75.56072998046875 5.19659423828125 67.78660583496094 8.390518188476562 C 60.10597229003906 11.54597473144531 52.9678955078125 15.4439697265625 46.570556640625 19.97622680664062 C 40.245361328125 24.45735168457031 34.45648193359375 29.69172668457031 29.36465454101562 35.53396606445312 C 24.3228759765625 41.3187255859375 19.81430053710938 47.87181091308594 15.964111328125 55.01113891601562 C 12.14956665039062 62.08430480957031 8.868438720703125 69.9420166015625 6.211883544921875 78.36589050292969 C 3.582061767578125 86.70492553710938 1.487060546875 95.84376525878906 -0.0150146484375 105.5286407470703 C -1.499603271484375 115.1006774902344 -2.4486083984375 125.4873886108398 -2.8355712890625 136.4002227783203 C -3.14227294921875 145.0490112304688 -2.93597412109375 153.1380920410156 -2.222412109375 160.4428100585938 C -1.520233154296875 167.6308441162109 -0.302947998046875 174.3030090332031 1.39556884765625 180.2740173339844 C 3.058685302734375 186.1205596923828 5.241058349609375 191.4971008300781 7.882049560546875 196.2542724609375 C 10.46060180664062 200.89892578125 13.57012939453125 205.12109375 17.12423706054688 208.803466796875 C 25.90744018554688 217.9036407470703 37.7857666015625 224.2591400146484 53.43801879882812 228.2332153320312 C 60.82084655761719 230.1077270507812 68.94151306152344 231.4448547363281 78.26397705078125 232.3210144042969 C 86.91755676269531 233.1343078613281 96.41389465332031 233.5296783447266 107.2955932617188 233.5296783447266 C 113.4599304199219 233.5296783447266 119.9464721679688 233.4040069580078 127.1258544921875 233.1455078125 C 151.4486389160156 232.2698059082031 172.3838043212891 230.2588500976562 191.1277160644531 226.9977264404297 C 201.8198852539062 225.1374664306641 211.8736419677734 222.8363952636719 221.0096435546875 220.1584320068359 C 230.8334350585938 217.2788543701172 239.9153900146484 213.8704681396484 248.0032196044922 210.0279235839844 C 256.6056823730469 205.9408874511719 264.3489990234375 201.2368469238281 271.0181274414062 196.0465087890625 C 278.0580444335938 190.5675964355469 284.1146545410156 184.3803863525391 289.0195617675781 177.6568450927734 C 291.5679016113281 174.1636352539062 293.8616333007812 170.4488525390625 295.8370666503906 166.6156311035156 C 297.8630065917969 162.6843872070312 299.61279296875 158.514892578125 301.037841796875 154.222900390625 C 302.4992370605469 149.8213806152344 303.6611938476562 145.1641845703125 304.4914245605469 140.3807220458984 C 305.3425903320312 135.4768981933594 305.8695983886719 130.2998046875 306.0577697753906 124.9931793212891 C 306.3177795410156 117.6618041992188 305.8268432617188 110.430305480957 304.5986938476562 103.4995574951172 C 303.4123840332031 96.80484008789062 301.510009765625 90.23063659667969 298.9443359375 83.95951843261719 C 294.0420532226562 71.97688293457031 286.610595703125 60.77693176269531 276.8564758300781 50.67076110839844 C 268.6425170898438 42.16038513183594 258.7564392089844 34.39889526367188 247.4728088378906 27.601806640625 C 236.6788024902344 21.09968566894531 224.6275177001953 15.48855590820312 211.6537170410156 10.92427062988281 C 199.09130859375 6.504684448242188 185.7784423828125 3.103683471679688 172.0850219726562 0.8158111572265625 C 158.5970611572266 -1.437774658203125 144.9346466064453 -2.5804443359375 131.4771881103516 -2.5804443359375 M 131.4771728515625 -4.5804443359375 C 215.9195861816406 -4.5804443359375 311.0664978027344 40.18231201171875 308.0565185546875 125.0640563964844 C 304.9456787109375 212.7889251708984 213.6002197265625 232.0333862304688 127.1978149414062 235.1442260742188 C 120.3263244628906 235.3916168212891 113.6835479736328 235.5296630859375 107.2956085205078 235.5296630859375 C 33.36129760742188 235.5296630859375 -7.69775390625 217.0775604248047 -4.834320068359375 136.329345703125 C -1.723480224609375 48.60447692871094 36.61444091796875 -1.318191528320312 123.016845703125 -4.429031372070312 C 125.8171234130859 -4.52984619140625 128.6487426757812 -4.5804443359375 131.4771728515625 -4.5804443359375 Z" stroke="none" fill="#6cb144"/>
    </g>
    <g id="Path_4506" data-name="Path 4506" transform="translate(390.026 792.985) rotate(173)" fill="none">
      <path d="M119.565-1.1c83.978-.769,184.12,48.257,183.35,138.406S213.774,244.687,129.8,245.456-1.965,230.247-1.2,140.1,35.587-.326,119.565-1.1Z" stroke="none"/>
      <path d="M 121.5153045654297 0.8956756591796875 C 120.8729248046875 0.8956756591796875 120.2228393554688 0.8986358642578125 119.5830993652344 0.904510498046875 C 109.2924652099609 0.9987945556640625 99.55830383300781 1.85968017578125 90.65092468261719 3.463180541992188 C 81.85000610351562 5.04754638671875 73.60151672363281 7.402923583984375 66.13459777832031 10.46383666992188 C 58.75979614257812 13.48696899414062 51.93084716796875 17.28738403320312 45.83729553222656 21.75946044921875 C 39.81097412109375 26.18222045898438 34.32400512695312 31.39418029785156 29.52883911132812 37.25047302246094 C 24.7774658203125 43.05329895019531 20.5633544921875 49.66192626953125 17.0035400390625 56.89280700683594 C 13.47467041015625 64.06097412109375 10.48464965820312 72.05192565917969 8.116455078125 80.64375305175781 C 5.7716064453125 89.15121459960938 3.96771240234375 98.49708557128906 2.7550048828125 108.4217987060547 C 1.55633544921875 118.2313003540039 0.900054931640625 128.8942260742188 0.80426025390625 140.1143798828125 C 0.725250244140625 149.3710021972656 1.171844482421875 158.0159606933594 2.131591796875 165.8091430664062 C 3.07574462890625 173.4756317138672 4.54925537109375 180.5822143554688 6.511077880859375 186.9314270019531 C 8.431182861328125 193.1453857421875 10.88702392578125 198.8527984619141 13.8104248046875 203.8951721191406 C 16.66189575195312 208.8135070800781 20.06375122070312 213.2800903320312 23.92147827148438 217.1709289550781 C 33.72222900390625 227.0556335449219 46.99530029296875 233.8896789550781 64.49922180175781 238.0635986328125 C 80.00096130371094 241.7600860595703 98.99476623535156 243.4817657470703 124.2738494873047 243.4817657470703 C 126.0610961914062 243.4817657470703 127.912841796875 243.4730987548828 129.7776794433594 243.4560089111328 C 153.4091339111328 243.2395172119141 173.7157592773438 241.7605895996094 191.8579711914062 238.9347991943359 C 202.2039184570312 237.3233032226562 211.9173431396484 235.2410125732422 220.7283325195312 232.7456817626953 C 230.1995544433594 230.0633392333984 238.9356384277344 226.8172607421875 246.6939239501953 223.0975952148438 C 254.9429626464844 219.1425933837891 262.3414611816406 214.5302581787109 268.6839599609375 209.3887176513672 C 275.3797607421875 203.9607543945312 281.1029968261719 197.777099609375 285.6947937011719 191.0093841552734 C 288.0820007324219 187.4909210205078 290.21630859375 183.737060546875 292.0384216308594 179.8519287109375 C 293.908203125 175.8652191162109 295.5033874511719 171.625 296.7796325683594 167.2490844726562 C 299.4315490722656 158.1563110351562 300.8228759765625 148.0779266357422 300.9149169921875 137.2939300537109 C 300.9835205078125 129.2594299316406 300.2254638671875 121.3248443603516 298.6618957519531 113.7106781005859 C 297.1543884277344 106.3693389892578 294.8632202148438 99.15525817871094 291.85205078125 92.26872253417969 C 286.1128845214844 79.14317321777344 277.6508483886719 66.88833618164062 266.7010498046875 55.84468078613281 C 258.0458984375 47.11529541015625 247.8297119140625 39.13917541503906 236.3363342285156 32.13784790039062 C 225.3313903808594 25.43400573730469 213.1909790039062 19.64096069335938 200.2523040771484 14.91958618164062 C 187.6985168457031 10.33871459960938 174.5225830078125 6.810760498046875 161.0906372070312 4.433837890625 C 147.8235473632812 2.086090087890625 134.5084686279297 0.8956756591796875 121.5153045654297 0.8956756591796875 M 121.5152740478516 -1.104324340820312 C 205.0870361328125 -1.104324340820312 303.6783752441406 47.85484313964844 302.9148559570312 137.3110046386719 C 302.1454162597656 227.4605560302734 213.7738037109375 244.6865081787109 129.7960052490234 245.4559326171875 C 127.9405364990234 245.4729309082031 126.0938262939453 245.4817810058594 124.2738342285156 245.4817810058594 C 43.72146606445312 245.4817810058594 -1.94805908203125 228.2549743652344 -1.195648193359375 140.0972900390625 C -0.426239013671875 49.94784545898438 35.5869140625 -0.32598876953125 119.5647583007812 -1.095413208007812 C 120.2105865478516 -1.101318359375 120.8675994873047 -1.104324340820312 121.5152740478516 -1.104324340820312 Z" stroke="none" fill="#0882b7"/>
    </g>
  </g>
</svg>
