<?xml version="1.0" encoding="utf-8"?>
<!-- Generator: Adobe Illustrator 19.0.0, SVG Export Plug-In . SVG Version: 6.00 Build 0)  -->
<svg version="1.1" id="Layer_1" xmlns="http://www.w3.org/2000/svg" xmlns:xlink="http://www.w3.org/1999/xlink" x="0px" y="0px"
	 viewBox="-85.1 252.2 296.3 263.5" style="enable-background:new -85.1 252.2 296.3 263.5;" xml:space="preserve">
<style type="text/css">
	.st0{opacity:0.365;}
	.st1{fill:none;}
	.st2{fill:#6CB144;}
	.st3{fill:#0882B7;}
</style>
<g id="Group_2389" transform="translate(-35.032 -491.578)" class="st0">
	<g id="Path_4486" transform="matrix(-0.777, 0.629, -0.629, -0.777, 404.859, 664.939)">
		<path class="st1" d="M346.5-93.8c81.5,0,179.2,45.2,179.2,126.7s-85.7,96.4-167.2,96.4s-128.1-14.8-128.1-96.4
			S265-93.8,346.5-93.8z"/>
		<path class="st2" d="M346.5-91.8c-10,0-19.4,0.7-28.1,2.1c-8.5,1.4-16.5,3.4-23.7,6.1c-7.1,2.7-13.7,6.1-19.6,10
			c-5.8,3.9-11.1,8.6-15.7,13.8c-4.6,5.2-8.6,11.1-12,17.6c-3.4,6.4-6.2,13.6-8.4,21.4c-2.2,7.7-3.9,16.1-5,25
			c-1.1,8.8-1.6,18.5-1.6,28.6c0,10,0.7,19.1,2.1,27.2c1.4,7.9,3.5,15.1,6.2,21.4c2.7,6.1,6.1,11.6,10.2,16.4
			c3.9,4.6,8.6,8.6,14,12.1c10.2,6.5,23.1,11,39.5,13.7c14.4,2.4,31.6,3.6,54.1,3.6c22.9,0,42.7-1.2,60.2-3.6
			c10-1.4,19.4-3.2,28-5.4c9.2-2.3,17.6-5.2,25.1-8.5c8-3.5,15.1-7.6,21.2-12.2c6.4-4.8,11.9-10.4,16.3-16.4
			c4.6-6.4,8.2-13.6,10.5-21.3c2.5-8.2,3.8-17.2,3.8-27c0-19-5.4-36.9-16.2-53.1c-5-7.5-11.2-14.7-18.4-21.4
			c-6.9-6.4-14.8-12.4-23.5-17.8c-8.4-5.2-17.6-9.9-27.4-14c-9.5-4-19.5-7.4-29.9-10.2c-10.1-2.7-20.6-4.8-31-6.2
			C366.9-91.1,356.6-91.8,346.5-91.8 M346.5-93.8c81.5,0,179.2,45.2,179.2,126.7c0,81.5-85.7,96.4-167.2,96.4
			c-81.5,0-128.1-14.8-128.1-96.4C230.4-48.7,265-93.8,346.5-93.8z"/>
	</g>
	<g id="Path_4506" transform="matrix(-0.966, 0.259, -0.259, -0.966, 391.402, 740.688)">
		<path class="st1" d="M288.4-179.3c81.5,0,179.2,45.2,179.2,126.7s-85.7,96.4-167.2,96.4S172.3,28.9,172.3-52.6
			S206.8-179.3,288.4-179.3z"/>
		<path class="st3" d="M288.4-179.3v2c-10,0-19.4,0.7-28.1,2.1c-8.5,1.4-16.5,3.4-23.7,6.1c-7.1,2.7-13.7,6.1-19.6,10
			c-5.8,3.9-11.1,8.6-15.7,13.8c-4.6,5.2-8.6,11.1-12,17.6c-3.4,6.4-6.2,13.6-8.4,21.4c-2.2,7.7-3.9,16.1-5,25
			c-1.1,8.8-1.6,18.5-1.6,28.6c0,10,0.7,19.1,2.1,27.2c1.4,7.9,3.5,15.1,6.2,21.4c2.7,6.1,6.1,11.6,10.2,16.4
			c3.9,4.6,8.6,8.6,14,12.1c10.2,6.5,23.1,11,39.5,13.7c14.4,2.4,31.6,3.6,54.1,3.6c22.9,0,42.7-1.2,60.2-3.6
			c10-1.4,19.4-3.2,28-5.4c9.2-2.3,17.6-5.2,25.1-8.5c8-3.5,15.1-7.6,21.2-12.2c6.4-4.8,11.9-10.4,16.3-16.4
			c4.6-6.4,8.2-13.6,10.5-21.3c2.5-8.2,3.8-17.2,3.8-27c0-19-5.4-36.9-16.2-53.1c-5-7.5-11.2-14.7-18.4-21.4
			c-6.9-6.4-14.8-12.4-23.5-17.8c-8.4-5.2-17.6-9.9-27.4-14c-9.5-4-19.5-7.4-29.9-10.2c-10.1-2.7-20.6-4.8-31-6.2
			c-10.4-1.4-20.8-2.1-30.8-2.1V-179.3 M288.4-179.3c81.5,0,179.2,45.2,179.2,126.7c0,81.5-85.7,96.4-167.2,96.4
			c-81.5,0-128.1-14.8-128.1-96.4C172.3-134.1,206.8-179.3,288.4-179.3z"/>
	</g>
</g>
</svg>
