<svg xmlns="http://www.w3.org/2000/svg" width="369.828" height="359.16" viewBox="0 0 369.828 359.16">
  <g id="Group_2389" data-name="Group 2389" transform="translate(-35.032 -491.578)" opacity="0.365">
    <g id="Path_4486" data-name="Path 4486" transform="matrix(-0.777, 0.629, -0.629, -0.777, 404.859, 664.939)" fill="none">
      <path d="M116.076,0C197.6,0,295.238,45.171,295.238,126.7s-85.657,96.375-167.185,96.375S0,208.226,0,126.7,34.549,0,116.076,0Z" stroke="none"/>
      <path d="M 116.0764007568359 2 C 106.0820465087891 2 96.63450622558594 2.698226928710938 87.99620056152344 4.075225830078125 C 79.46223449707031 5.435653686523438 71.47174072265625 7.497879028320312 64.24662780761719 10.20472717285156 C 57.11459350585938 12.87669372558594 50.519775390625 16.25506591796875 44.64543151855469 20.24600219726562 C 38.84100341796875 24.189453125 33.56683349609375 28.84880065917969 28.96942138671875 34.09465026855469 C 24.41659545898438 39.28961181640625 20.39080810546875 45.215576171875 17.00396728515625 51.70783996582031 C 13.64617919921875 58.14445495605469 10.81674194335938 65.32833862304688 8.594268798828125 73.05999755859375 C 6.392730712890625 80.71896362304688 4.72216796875 89.14018249511719 3.628997802734375 98.08969116210938 C 2.548095703125 106.9389572143555 2 116.5644226074219 2 126.6986465454102 C 2 136.6507263183594 2.716156005859375 145.8038024902344 4.128631591796875 153.903564453125 C 5.511138916015625 161.8316497802734 7.61279296875 169.046875 10.37515258789062 175.3488464355469 C 13.06256103515625 181.4796447753906 16.48196411132812 186.9870758056641 20.53848266601562 191.7181549072266 C 24.47750854492188 196.3121948242188 29.184326171875 200.3678436279297 34.52816772460938 203.7723388671875 C 44.70777893066406 210.2577209472656 57.61331176757812 214.7506103515625 73.98231506347656 217.5077667236328 C 88.42597961425781 219.9406433105469 105.6072845458984 221.0737609863281 128.0529022216797 221.07373046875 C 150.9984283447266 221.07373046875 170.7051239013672 219.9041900634766 188.2990875244141 217.4983367919922 C 198.33251953125 216.1263427734375 207.7476654052734 214.3232269287109 216.2830505371094 212.1389923095703 C 225.4568939208984 209.7913818359375 233.9118194580078 206.9279632568359 241.4129638671875 203.6282958984375 C 249.3848266601562 200.1215667724609 256.524658203125 196.0144958496094 262.6342468261719 191.4212341308594 C 269.0769348144531 186.5774536132812 274.5696716308594 181.0455322265625 278.9598693847656 174.9791107177734 C 283.57861328125 168.5968017578125 287.1197814941406 161.4253845214844 289.4849853515625 153.6640014648438 C 291.9752502441406 145.4921112060547 293.2379455566406 136.4196166992188 293.2379455566406 126.6984939575195 C 293.2379455566406 107.6544570922852 287.7890930175781 89.794189453125 277.0427856445312 73.61384582519531 C 272.0491638183594 66.09515380859375 265.87353515625 58.90727233886719 258.6874694824219 52.24980163574219 C 251.7917022705078 45.86134338378906 243.8809814453125 39.88114929199219 235.175048828125 34.47541809082031 C 226.7807769775391 29.26322937011719 217.5760498046875 24.53941345214844 207.8165588378906 20.43522644042969 C 198.3353881835938 16.44807434082031 188.2863464355469 13.0260009765625 177.9486236572266 10.26399230957031 C 167.8010559082031 7.552810668945312 157.3608551025391 5.473114013671875 146.9181213378906 4.082656860351562 C 136.5392456054688 2.70068359375 126.1625823974609 2 116.0764007568359 2 M 116.0764007568359 0 C 197.6040954589844 -4.57763671875e-05 295.2379760742188 45.17076110839844 295.2379455566406 126.6984939575195 C 295.2378845214844 208.2262268066406 209.5805969238281 223.0736846923828 128.0529022216797 223.07373046875 C 46.52516174316406 223.0738067626953 -3.0517578125e-05 208.2263793945312 0 126.6986465454102 C 6.103515625e-05 45.17091369628906 34.5487060546875 3.0517578125e-05 116.0764007568359 0 Z" stroke="none" fill="#6cb144"/>
    </g>
    <g id="Path_4506" data-name="Path 4506" transform="matrix(-0.966, 0.259, -0.259, -0.966, 391.402, 740.688)" fill="none">
      <path d="M116.076,0C197.6,0,295.238,45.171,295.238,126.7s-85.657,96.375-167.185,96.375S0,208.226,0,126.7,34.549,0,116.076,0Z" stroke="none"/>
      <path d="M 116.0763702392578 -1.52587890625e-05 L 116.0763702392578 1.999984741210938 C 106.0820159912109 1.999984741210938 96.63447570800781 2.698211669921875 87.99617004394531 4.07525634765625 C 79.46220397949219 5.435638427734375 71.47171020507812 7.497909545898438 64.24659729003906 10.2047119140625 C 57.11456298828125 12.87667846679688 50.51974487304688 16.25505065917969 44.64540100097656 20.24601745605469 C 38.84097290039062 24.18948364257812 33.56680297851562 28.84883117675781 28.96939086914062 34.09463500976562 C 24.41656494140625 39.28962707519531 20.39077758789062 45.21556091308594 17.00393676757812 51.70782470703125 C 13.64614868164062 58.14443969726562 10.81671142578125 65.328369140625 8.59423828125 73.06001281738281 C 6.3927001953125 80.71897888183594 4.722137451171875 89.14016723632812 3.62896728515625 98.08971405029297 C 2.548065185546875 106.9389801025391 1.999969482421875 116.5643997192383 1.999969482421875 126.6986694335938 C 1.999969482421875 136.6507568359375 2.7161865234375 145.8038330078125 4.12860107421875 153.9035949707031 C 5.511138916015625 161.8316650390625 7.61279296875 169.0469055175781 10.37518310546875 175.3488616943359 C 13.06253051757812 181.4796752929688 16.48193359375 186.9870910644531 20.5384521484375 191.7181701660156 C 24.47750854492188 196.312255859375 29.184326171875 200.3678588867188 34.52816772460938 203.7723693847656 C 44.70774841308594 210.2577514648438 57.61332702636719 214.7506408691406 73.98228454589844 217.5078277587891 C 88.42594909667969 219.940673828125 105.6072082519531 221.0737915039062 128.0528259277344 221.0737915039062 C 150.9983673095703 221.0737915039062 170.7050476074219 219.9042816162109 188.2990112304688 217.4984436035156 C 198.3324432373047 216.1264343261719 207.7475891113281 214.3232879638672 216.2829895019531 212.1390533447266 C 225.456787109375 209.7914733886719 233.9117431640625 206.9280548095703 241.4129028320312 203.6283569335938 C 249.3847045898438 200.1216278076172 256.5245971679688 196.0145874023438 262.6341247558594 191.4212951660156 C 269.0768127441406 186.5775146484375 274.569580078125 181.0455932617188 278.9597473144531 174.9791717529297 C 283.5785217285156 168.5968627929688 287.1196594238281 161.4254455566406 289.48486328125 153.6640167236328 C 291.9751281738281 145.4921264648438 293.2378234863281 136.4196319580078 293.2378234863281 126.6985168457031 C 293.2378234863281 107.6544799804688 287.7890319824219 89.79420471191406 277.0426635742188 73.61386108398438 C 272.049072265625 66.09516906738281 265.8734741210938 58.90728759765625 258.6874084472656 52.24983215332031 C 251.7915954589844 45.86135864257812 243.8809051513672 39.88117980957031 235.1749877929688 34.47544860839844 C 226.7807464599609 29.26324462890625 217.5760192871094 24.53944396972656 207.8164825439453 20.43525695800781 C 198.3353271484375 16.44808959960938 188.2863159179688 13.02601623535156 177.9485931396484 10.26402282714844 C 167.8009796142578 7.552825927734375 157.3608245849609 5.473098754882812 146.9180908203125 4.0826416015625 C 136.5392150878906 2.700668334960938 126.1625518798828 1.999984741210938 116.0763702392578 1.999984741210938 L 116.0763702392578 -1.52587890625e-05 M 116.0763702392578 -1.52587890625e-05 C 197.6040191650391 -1.52587890625e-05 295.2379150390625 45.17079162597656 295.2378234863281 126.6985168457031 C 295.23779296875 208.226318359375 209.5805206298828 223.0737915039062 128.0528259277344 223.0737915039062 C 46.52517700195312 223.0738220214844 -3.0517578125e-05 208.2264099121094 -3.0517578125e-05 126.6986694335938 C 3.0517578125e-05 45.1708984375 34.54867553710938 6.103515625e-05 116.0763702392578 -1.52587890625e-05 Z" stroke="none" fill="#0882b7"/>
    </g>
  </g>
</svg>
