<svg xmlns="http://www.w3.org/2000/svg" width="444.856" height="408.531" viewBox="0 0 444.856 408.531">
  <g id="Group_2390" data-name="Group 2390" transform="translate(-49.749 -499.839) rotate(-1)" opacity="0.365">
    <g id="Path_4486" data-name="Path 4486" transform="matrix(-0.891, 0.454, -0.454, -0.891, 481.622, 748.146)" fill="none">
      <path d="M141.315,0c99.254,0,218.117,54.992,218.116,154.246S255.149,271.576,155.9,271.576,0,253.5,0,154.247,42.061,0,141.315,0Z" stroke="none"/>
      <path d="M 141.3147583007812 2 C 129.1244812011719 2 117.5997619628906 2.85186767578125 107.0607147216797 4.531890869140625 C 96.64251708984375 6.192626953125 86.8863525390625 8.71075439453125 78.06317138671875 12.01632690429688 C 69.3480224609375 15.2813720703125 61.28848266601562 19.41026306152344 54.10830688476562 24.28840637207031 C 47.01126098632812 29.11000061035156 40.56253051757812 34.80703735351562 34.94122314453125 41.22117614746094 C 29.37567138671875 47.57176208496094 24.45489501953125 54.81491088867188 20.31561279296875 62.74949645996094 C 16.21426391601562 70.61140441894531 12.75872802734375 79.38453674316406 10.0450439453125 88.82527160644531 C 7.358489990234375 98.17149353027344 5.320068359375 108.4464111328125 3.9864501953125 119.3645477294922 C 2.6683349609375 130.1553192138672 2.000030517578125 141.891357421875 2.000030517578125 154.2466430664062 C 2.000030517578125 166.3875885009766 2.87408447265625 177.555908203125 4.597930908203125 187.44140625 C 6.287017822265625 197.1275939941406 8.855743408203125 205.9452209472656 12.23275756835938 213.6493530273438 C 13.89138793945312 217.4332733154297 15.78598022460938 221.0448150634766 17.86398315429688 224.3836364746094 C 19.91293334960938 227.6758575439453 22.20416259765625 230.8057250976562 24.67398071289062 233.6862640380859 C 27.10833740234375 236.5254058837891 29.79302978515625 239.2119445800781 32.65353393554688 241.6712188720703 C 35.47134399414062 244.0938568115234 38.54934692382812 246.3729095458984 41.80194091796875 248.4451293945312 C 54.24493408203125 256.3724975585938 70.00933837890625 261.8625793457031 89.9959716796875 265.2290954589844 C 107.6045837402344 268.1950378417969 128.5445251464844 269.5764465332031 155.8953094482422 269.5764465332031 C 183.8497619628906 269.576416015625 207.8605346679688 268.1513061523438 229.2996673583984 265.2196655273438 C 241.5310363769531 263.5470886230469 253.0097961425781 261.3486633300781 263.4170227050781 258.6854553222656 C 274.6084899902344 255.8215026855469 284.9244384765625 252.3276824951172 294.0782470703125 248.3010406494141 C 303.8139343261719 244.0184020996094 312.5352172851562 239.0013580322266 319.9998474121094 233.3893127441406 C 323.8889770507812 230.4653625488281 327.5224304199219 227.3159027099609 330.7992553710938 224.0283203125 C 334.16162109375 220.6549072265625 337.2457885742188 217.0384979248047 339.9661254882812 213.279541015625 C 342.7564086914062 209.4239044189453 345.2446594238281 205.3064880371094 347.3619079589844 201.0417785644531 C 349.5337219238281 196.6670379638672 351.3779296875 192.0105895996094 352.8433837890625 187.2017211914062 C 354.3465881347656 182.2689514160156 355.4945678710938 177.0336303710938 356.2554931640625 171.6412200927734 C 357.0356750488281 166.1122131347656 357.4312438964844 160.259765625 357.4312438964844 154.2463989257812 C 357.4312438964844 130.9745483398438 350.7732543945312 109.1499938964844 337.6421813964844 89.37904357910156 C 331.5437622070312 80.1968994140625 324.0029296875 71.41976928710938 315.2291564941406 63.29145812988281 C 306.813720703125 55.49504089355469 297.1607055664062 48.19767761230469 286.5382995605469 41.60194396972656 C 276.2995300292969 35.24444580078125 265.072998046875 29.48295593261719 253.1704406738281 24.47758483886719 C 241.6095733642578 19.61585998535156 229.3566741943359 15.4432373046875 216.7520751953125 12.07559204101562 C 204.380126953125 8.77008056640625 191.6514892578125 6.234527587890625 178.9197998046875 4.539276123046875 C 166.2652587890625 2.85430908203125 153.6131286621094 2 141.3147583007812 2 M 141.3147583007812 0 C 240.5689392089844 -6.103515625e-05 359.4312438964844 54.99217224121094 359.4312438964844 154.2463989257812 C 359.43115234375 253.5006408691406 255.1494445800781 271.5763549804688 155.8953094482422 271.5764465332031 C 56.64108276367188 271.5765075683594 0 253.5008544921875 3.0517578125e-05 154.2466430664062 C 9.1552734375e-05 54.99240112304688 42.06060791015625 3.0517578125e-05 141.3147583007812 0 Z" stroke="none" fill="#6cb144"/>
    </g>
    <g id="Path_4506" data-name="Path 4506" transform="translate(418.916 868.226) rotate(-172)" fill="none">
      <path d="M141.315,0c99.254,0,218.116,54.992,218.116,154.246S255.149,271.577,155.9,271.577,0,253.5,0,154.247,42.061,0,141.315,0Z" stroke="none"/>
      <path d="M 141.3147277832031 2 C 129.1244506835938 2 117.5997314453125 2.85186767578125 107.0606384277344 4.531890869140625 C 96.64248657226562 6.192626953125 86.88632202148438 8.71075439453125 78.06307983398438 12.01632690429688 C 69.34799194335938 15.2813720703125 61.28842163085938 19.41026306152344 54.10821533203125 24.28840637207031 C 47.01123046875 29.11000061035156 40.5625 34.80703735351562 34.94119262695312 41.22117614746094 C 29.37557983398438 47.57176208496094 24.45480346679688 54.81491088867188 20.3155517578125 62.74949645996094 C 16.2142333984375 70.61140441894531 12.75869750976562 79.38453674316406 10.04501342773438 88.82522583007812 C 7.35845947265625 98.17149353027344 5.320037841796875 108.4464111328125 3.986419677734375 119.3645477294922 C 2.668304443359375 130.1553192138672 2 141.891357421875 2 154.2466430664062 C 2 166.3875885009766 2.874053955078125 177.555908203125 4.597900390625 187.44140625 C 6.2869873046875 197.1275939941406 8.855712890625 205.9452209472656 12.23272705078125 213.6494140625 C 13.891357421875 217.4332733154297 15.7860107421875 221.0448150634766 17.86395263671875 224.3836822509766 C 19.91290283203125 227.6758575439453 22.20413208007812 230.8057250976562 24.67401123046875 233.6863098144531 C 27.10830688476562 236.5254516601562 29.79306030273438 239.2119445800781 32.65350341796875 241.6712646484375 C 35.4713134765625 244.0938568115234 38.54931640625 246.3729553222656 41.80191040039062 248.4451751708984 C 54.24496459960938 256.3725280761719 70.00936889648438 261.8626403808594 89.99594116210938 265.2291259765625 C 107.6045532226562 268.1951293945312 128.5444946289062 269.5765380859375 155.8952789306641 269.5765380859375 C 183.8497314453125 269.5765380859375 207.8605041503906 268.1513977050781 229.2995910644531 265.2197570800781 C 241.531005859375 263.5472106933594 253.0097351074219 261.3488159179688 263.4169921875 258.685546875 C 274.6084594726562 255.8216247558594 284.9243774414062 252.3278198242188 294.078125 248.3011322021484 C 303.8138122558594 244.0185394287109 312.5351257324219 239.0014953613281 319.9997253417969 233.3894500732422 C 323.8888549804688 230.4654998779297 327.5223083496094 227.3159942626953 330.7991333007812 224.0284423828125 C 334.1614990234375 220.6550445556641 337.2456665039062 217.0386352539062 339.9660034179688 213.2796783447266 C 342.7562866210938 209.4239959716797 345.2445373535156 205.306640625 347.3617858886719 201.0418701171875 C 349.5335388183594 196.6671752929688 351.3777770996094 192.0107269287109 352.8432312011719 187.2018585205078 C 354.3464660644531 182.26904296875 355.4944458007812 177.0337219238281 356.2553100585938 171.6413116455078 C 357.0354919433594 166.1123657226562 357.4310913085938 160.2598571777344 357.4310913085938 154.2464904785156 C 357.4311218261719 130.9746398925781 350.7731323242188 109.1500854492188 337.6420593261719 89.37908935546875 C 331.5436706542969 80.19694519042969 324.0028686523438 71.41981506347656 315.2290954589844 63.29150390625 C 306.8136291503906 55.49508666992188 297.16064453125 48.19767761230469 286.5382385253906 41.60198974609375 C 276.2994995117188 35.24444580078125 265.0729064941406 29.48300170898438 253.1703643798828 24.47758483886719 C 241.6094970703125 19.61585998535156 229.3565979003906 15.4432373046875 216.7520446777344 12.07559204101562 C 204.3800964355469 8.77008056640625 191.6514587402344 6.234527587890625 178.9197235107422 4.539276123046875 C 166.2652282714844 2.85430908203125 153.6130523681641 2 141.3147277832031 2 M 141.3147277832031 0 C 240.5688629150391 -6.103515625e-05 359.4312133789062 54.99221801757812 359.4310913085938 154.2464904785156 C 359.4310607910156 253.5007629394531 255.1494140625 271.5765075683594 155.8952789306641 271.5765380859375 C 56.64108276367188 271.5765380859375 -3.0517578125e-05 253.5008544921875 0 154.2466430664062 C 6.103515625e-05 54.99240112304688 42.060546875 3.0517578125e-05 141.3147277832031 0 Z" stroke="none" fill="#0882b7"/>
    </g>
  </g>
</svg>
