<?xml version="1.0" encoding="utf-8"?>
<!-- Generator: Adobe Illustrator 19.0.0, SVG Export Plug-In . SVG Version: 6.00 Build 0)  -->
<svg version="1.1" id="Layer_1" xmlns="http://www.w3.org/2000/svg" xmlns:xlink="http://www.w3.org/1999/xlink" x="0px" y="0px"
	 viewBox="-41.3 230.2 363 307.7" style="enable-background:new -41.3 230.2 363 307.7;" xml:space="preserve">
<style type="text/css">
	.st0{opacity:0.365;}
	.st1{fill:none;}
	.st2{fill:#6CB144;}
	.st3{fill:#0882B7;}
</style>
<g id="Group_2390" transform="translate(-49.749 -499.839) rotate(-1)" class="st0">
	<g id="Path_4486" transform="matrix(-0.891, 0.454, -0.454, -0.891, 481.622, 748.146)">
		<path class="st1" d="M305-131c99.3,0,218.1,55,218.1,154.2S418.8,140.6,319.5,140.6S163.6,122.5,163.6,23.3
			C163.6-76,205.7-131,305-131z"/>
		<path class="st2" d="M305-129c-12.2,0-23.7,0.9-34.3,2.5c-10.4,1.7-20.2,4.2-29,7.5c-8.7,3.3-16.8,7.4-24,12.3
			c-7.1,4.8-13.5,10.5-19.2,16.9c-5.6,6.4-10.5,13.6-14.6,21.5c-4.1,7.9-7.6,16.6-10.3,26.1c-2.7,9.3-4.7,19.6-6.1,30.5
			c-1.3,10.8-2,22.5-2,34.9c0,12.1,0.9,23.3,2.6,33.2c1.7,9.7,4.3,18.5,7.6,26.2c1.7,3.8,3.6,7.4,5.6,10.7c2,3.3,4.3,6.4,6.8,9.3
			c2.4,2.8,5.1,5.5,8,8c2.8,2.4,5.9,4.7,9.1,6.8c12.4,7.9,28.2,13.4,48.2,16.8c17.6,3,38.5,4.3,65.9,4.3c28,0,52-1.4,73.4-4.4
			c12.2-1.7,23.7-3.9,34.1-6.5c11.2-2.9,21.5-6.4,30.7-10.4c9.7-4.3,18.5-9.3,25.9-14.9c3.9-2.9,7.5-6.1,10.8-9.4
			c3.4-3.4,6.4-7,9.2-10.7c2.8-3.9,5.3-8,7.4-12.2c2.2-4.4,4-9,5.5-13.8c1.5-4.9,2.7-10.2,3.4-15.6c0.8-5.5,1.2-11.4,1.2-17.4
			c0-23.3-6.7-45.1-19.8-64.9c-6.1-9.2-13.6-18-22.4-26.1c-8.4-7.8-18.1-15.1-28.7-21.7c-10.2-6.4-21.5-12.1-33.4-17.1
			c-11.6-4.9-23.8-9-36.4-12.4c-12.4-3.3-25.1-5.8-37.8-7.5C329.9-128.1,317.3-129,305-129 M305-131c99.3,0,218.1,55,218.1,154.2
			c0,99.3-104.3,117.3-203.5,117.3c-99.3,0-155.9-18.1-155.9-117.3C163.6-76,205.7-131,305-131z"/>
	</g>
	<g id="Path_4506" transform="translate(418.916 868.226) rotate(-172)">
		<path class="st1" d="M200.2-201.1c99.3,0,218.1,55,218.1,154.2S314.1,70.4,214.8,70.4c-99.2,0-155.9-18.1-155.9-117.3
			C58.9-146.2,101-201.1,200.2-201.1z"/>
		<path class="st3" d="M200.2-199.1c-12.2,0-23.7,0.9-34.3,2.5c-10.4,1.7-20.2,4.2-29,7.5c-8.7,3.3-16.8,7.4-24,12.3
			c-7.1,4.8-13.5,10.5-19.2,16.9c-5.6,6.4-10.5,13.6-14.6,21.5c-4.1,7.9-7.6,16.6-10.3,26.1c-2.7,9.3-4.7,19.6-6.1,30.5
			c-1.3,10.8-2,22.5-2,34.9c0,12.1,0.9,23.3,2.6,33.2c1.7,9.7,4.3,18.5,7.6,26.2c1.7,3.8,3.6,7.4,5.6,10.7c2,3.3,4.3,6.4,6.8,9.3
			c2.4,2.8,5.1,5.5,8,8c2.8,2.4,5.9,4.7,9.1,6.8c12.4,7.9,28.2,13.4,48.2,16.8c17.6,3,38.5,4.3,65.9,4.3c28,0,52-1.4,73.4-4.4
			c12.2-1.7,23.7-3.9,34.1-6.5c11.2-2.9,21.5-6.4,30.7-10.4c9.7-4.3,18.5-9.3,25.9-14.9c3.9-2.9,7.5-6.1,10.8-9.4
			c3.4-3.4,6.4-7,9.2-10.7c2.8-3.9,5.3-8,7.4-12.2c2.2-4.4,4-9,5.5-13.8c1.5-4.9,2.7-10.2,3.4-15.6c0.8-5.5,1.2-11.4,1.2-17.4
			c0-23.3-6.7-45.1-19.8-64.9c-6.1-9.2-13.6-18-22.4-26.1c-8.4-7.8-18.1-15.1-28.7-21.7c-10.2-6.4-21.5-12.1-33.4-17.1
			c-11.6-4.9-23.8-9-36.4-12.4c-12.4-3.3-25.1-5.8-37.8-7.5C225.2-198.3,212.5-199.1,200.2-199.1 M200.2-201.1
			c99.3,0,218.1,55,218.1,154.2c0,99.3-104.3,117.3-203.5,117.3c-99.3,0-155.9-18.1-155.9-117.3C58.9-146.2,101-201.1,200.2-201.1z"
			/>
	</g>
</g>
</svg>
