<svg xmlns="http://www.w3.org/2000/svg" xmlns:xlink="http://www.w3.org/1999/xlink" width="60.193" height="64.917" viewBox="0 0 60.193 64.917">
  <defs>
    <linearGradient id="linear-gradient" x1="0.5" x2="0.5" y2="1" gradientUnits="objectBoundingBox">
      <stop offset="0" stop-color="#94a4c4"/>
      <stop offset="1" stop-color="#4bdba3"/>
    </linearGradient>
    <clipPath id="clip-path">
      <rect id="Rectangle_3354" data-name="Rectangle 3354" width="60.193" height="64.917" fill="url(#linear-gradient)"/>
    </clipPath>
  </defs>
  <g id="Group_15885" data-name="Group 15885" transform="translate(0 0)">
    <g id="Group_14751" data-name="Group 14751" transform="translate(0 0)" clip-path="url(#clip-path)">
      <path id="Path_47390" data-name="Path 47390" d="M19.115,37.65a1.975,1.975,0,0,1-.629,1.439,1.914,1.914,0,0,1-1.332.523H11.832a1.892,1.892,0,0,1-.376-.041,1.961,1.961,0,0,1,0-3.85,1.892,1.892,0,0,1,.376-.041h5.321a1.914,1.914,0,0,1,1.332.523,1.98,1.98,0,0,1,.629,1.447" transform="translate(-1.802 -6.515)" fill="url(#linear-gradient)"/>
      <path id="Path_47391" data-name="Path 47391" d="M48.752,35.683H27.2c-.757,0-1.371.88-1.371,1.963s.614,1.964,1.371,1.964H48.752c.758,0,1.372-.88,1.372-1.964s-.614-1.963-1.372-1.963" transform="translate(-4.717 -6.516)" fill="url(#linear-gradient)"/>
      <path id="Path_47392" data-name="Path 47392" d="M19.115,47.14a1.975,1.975,0,0,1-.629,1.439,1.914,1.914,0,0,1-1.332.523H11.832a1.892,1.892,0,0,1-.376-.041,1.961,1.961,0,0,1,0-3.85,1.892,1.892,0,0,1,.376-.041h5.321a1.914,1.914,0,0,1,1.332.523,1.98,1.98,0,0,1,.629,1.447" transform="translate(-1.802 -8.248)" fill="url(#linear-gradient)"/>
      <path id="Path_47393" data-name="Path 47393" d="M48.752,45.174H27.2c-.757,0-1.371.88-1.371,1.963S26.448,49.1,27.2,49.1H48.752c.758,0,1.372-.88,1.372-1.964s-.614-1.963-1.372-1.963" transform="translate(-4.717 -8.249)" fill="url(#linear-gradient)"/>
      <path id="Path_47394" data-name="Path 47394" d="M19.115,56.812a1.948,1.948,0,0,1-.629,1.439,1.914,1.914,0,0,1-1.332.523H11.832a1.959,1.959,0,0,1-.376-3.883,1.892,1.892,0,0,1,.376-.041h5.321a1.914,1.914,0,0,1,1.332.523,1.948,1.948,0,0,1,.629,1.439" transform="translate(-1.802 -10.016)" fill="url(#linear-gradient)"/>
      <path id="Path_47395" data-name="Path 47395" d="M48.752,54.847H27.2c-.757,0-1.371.88-1.371,1.963s.614,1.964,1.371,1.964H48.752c.758,0,1.372-.88,1.372-1.964s-.614-1.963-1.372-1.963" transform="translate(-4.717 -10.015)" fill="url(#linear-gradient)"/>
      <path id="Path_47396" data-name="Path 47396" d="M55.643,9.42H50.8v3.923h4.839a2.2,2.2,0,0,1,2.2,2.2V60.515a2.2,2.2,0,0,1-2.2,2.191H14.732a2.2,2.2,0,0,1-2.2-2.191V55.006H8.61v5.509a6.129,6.129,0,0,0,6.122,6.122H55.643a6.129,6.129,0,0,0,6.122-6.122V15.542A6.129,6.129,0,0,0,55.643,9.42" transform="translate(-1.572 -1.72)" fill="url(#linear-gradient)"/>
      <path id="Path_47397" data-name="Path 47397" d="M47.041,0H6.13A6.131,6.131,0,0,0,0,6.122V51.1a6.131,6.131,0,0,0,6.13,6.122H47.041A6.129,6.129,0,0,0,53.163,51.1V6.122A6.129,6.129,0,0,0,47.041,0m2.191,51.1a2.191,2.191,0,0,1-2.191,2.191H6.13a2.195,2.195,0,0,1-2.2-2.191V6.122a2.2,2.2,0,0,1,2.2-2.2H47.041a2.2,2.2,0,0,1,2.191,2.2Z" fill="url(#linear-gradient)"/>
      <path id="Path_47398" data-name="Path 47398" d="M26.258,27.143a2.919,2.919,0,0,1-2.874-3.386l.6-3.683-2.432-2.184a2.912,2.912,0,0,1,1.425-5.034l3.35-.611L28.211,9A2.913,2.913,0,0,1,33.25,9l1.882,3.241,3.352.611a2.913,2.913,0,0,1,1.422,5.035l-2.432,2.183.6,3.683a2.9,2.9,0,0,1-1.183,2.84,2.953,2.953,0,0,1-3.07.2l-3.094-1.658-3.092,1.658a2.912,2.912,0,0,1-1.379.35m4.471-5.951,3.733,2-.723-4.435,2.994-2.688-3.8-.692-2.2-3.793-2.2,3.792-3.8.693,2.994,2.688L27,23.193Zm-.485-10.443h0Zm.973,0h0" transform="translate(-3.759 -1.379)" fill="url(#linear-gradient)"/>
    </g>
  </g>
</svg>
