<svg xmlns="http://www.w3.org/2000/svg" width="101.106" height="86.061" viewBox="0 0 101.106 86.061">
  <g id="Group_17330" data-name="Group 17330" transform="translate(-647.964 -1754.997)">
    <path id="Path_4485" data-name="Path 4485" d="M34.224,0C58.262,0,87.049,13.318,87.049,37.356S61.793,65.772,37.755,65.772,0,61.394,0,37.356,10.186,0,34.224,0Z" transform="matrix(-0.966, 0.259, -0.259, -0.966, 749.069, 1818.527)" fill="#004165"/>
    <g id="Path_4486" data-name="Path 4486" transform="matrix(-0.777, 0.629, -0.629, -0.777, 737.157, 1796.728)" fill="none">
      <path d="M24.256,0C41.293,0,61.695,9.439,61.695,26.476S43.8,46.615,26.759,46.615,0,43.512,0,26.476,7.22,0,24.256,0Z" stroke="none"/>
      <path d="M 24.25613021850586 2.000003814697266 C 20.29626846313477 2.000003814697266 16.83902740478516 2.543014526367188 13.98044967651367 3.61395263671875 C 11.26722717285156 4.630443572998047 9.000568389892578 6.162433624267578 7.243457794189453 8.167385101318359 C 5.505008697509766 10.15102386474609 4.183757781982422 12.68677520751953 3.316410064697266 15.70418357849121 C 2.442909240722656 18.74303436279297 2 22.36713409423828 2 26.4758243560791 C 2 30.40695381164551 2.528938293457031 33.52462387084961 3.617050170898438 36.00697326660156 C 4.60186767578125 38.25369262695312 6.056907653808594 39.96785354614258 8.065319061279297 41.24739456176758 C 10.01033782958984 42.48656463623047 12.51507949829102 43.3515625 15.72264862060547 43.891845703125 C 18.65187835693359 44.3852424621582 22.15869903564453 44.61504364013672 26.75882720947266 44.61504364013672 C 36.8984375 44.61503219604492 44.43864822387695 43.46638488769531 49.81031036376953 41.10344314575195 C 52.96978759765625 39.713623046875 55.3927001953125 37.87456512451172 57.01172637939453 35.63734436035156 C 57.87421798706055 34.44555282592773 58.53624725341797 33.10385513305664 58.97942733764648 31.6495246887207 C 59.45422744750977 30.09148406982422 59.69496917724609 28.35079383850098 59.69496917724609 26.47580337524414 C 59.69496917724609 22.81308364868164 58.64522933959961 19.37536430358887 56.57489776611328 16.25815391540527 C 54.64175796508789 13.34749221801758 51.86078643798828 10.75351333618164 48.30925750732422 8.548274993896484 C 44.99181747436523 6.488391876220703 41.00403594970703 4.802654266357422 36.77701568603516 3.673294067382812 C 32.67978668212891 2.57861328125 28.35013961791992 2.000003814697266 24.25613021850586 2.000003814697266 M 24.25613021850586 3.814697265625e-06 C 41.29271697998047 -7.62939453125e-06 61.69497680664062 9.439205169677734 61.69496917724609 26.47580337524414 C 61.69496917724609 43.51241302490234 43.79541778564453 46.61503219604492 26.75882720947266 46.61504364013672 C 9.72222900390625 46.61505508422852 0 43.51242446899414 0 26.4758243560791 C 0 9.439224243164062 7.219528198242188 3.814697265625e-06 24.25613021850586 3.814697265625e-06 Z" stroke="none" fill="#cdecf6"/>
    </g>
  </g>
</svg>
